<svg width="20" height="20" viewBox="0 0 20 20" fill="none" xmlns="http://www.w3.org/2000/svg">
<path d="M19.5312 8.75H18.3452C17.8017 5.09082 14.9092 2.19828 11.25 1.65484V0.46875C11.25 0.209883 11.0401 0 10.7812 0H9.21875C8.95988 0 8.75 0.209883 8.75 0.46875V1.65484C5.09082 2.19828 2.19828 5.09082 1.65484 8.75H0.46875C0.209883 8.75 0 8.95988 0 9.21875V10.7812C0 11.0401 0.209883 11.25 0.46875 11.25H1.65484C2.19828 14.9092 5.09082 17.8017 8.75 18.3452V19.5312C8.75 19.7901 8.95988 20 9.21875 20H10.7812C11.0401 20 11.25 19.7901 11.25 19.5312V18.3452C14.9092 17.8017 17.8017 14.9092 18.3452 11.25H19.5312C19.7901 11.25 20 11.0401 20 10.7812V9.21875C20 8.95988 19.7901 8.75 19.5312 8.75ZM11.25 15.806V14.2188C11.25 13.9599 11.0401 13.75 10.7812 13.75H9.21875C8.95988 13.75 8.75 13.9599 8.75 14.2188V15.806C6.47758 15.3216 4.67902 13.5251 4.19398 11.25H5.78125C6.04012 11.25 6.25 11.0401 6.25 10.7812V9.21875C6.25 8.95988 6.04012 8.75 5.78125 8.75H4.19398C4.67844 6.47758 6.47488 4.67902 8.75 4.19398V5.78125C8.75 6.04012 8.95988 6.25 9.21875 6.25H10.7812C11.0401 6.25 11.25 6.04012 11.25 5.78125V4.19398C13.5224 4.67844 15.321 6.47488 15.806 8.75H14.2188C13.9599 8.75 13.75 8.95988 13.75 9.21875V10.7812C13.75 11.0401 13.9599 11.25 14.2188 11.25H15.806C15.3216 13.5224 13.5251 15.321 11.25 15.806ZM11.25 10C11.25 10.6904 10.6904 11.25 10 11.25C9.30965 11.25 8.75 10.6904 8.75 10C8.75 9.30965 9.30965 8.75 10 8.75C10.6904 8.75 11.25 9.30965 11.25 10Z" fill="white"/>
</svg>
