<svg width="26" height="26" viewBox="0 0 26 26" fill="none" xmlns="http://www.w3.org/2000/svg">
<circle cx="13" cy="13" r="12.5" fill="white" stroke="#A4B375"/>
<g clip-path="url(#clip0_273_5258)">
<path d="M19.6007 15.8929L16.5382 14.5804C16.4074 14.5246 16.262 14.5129 16.1239 14.5469C15.9858 14.5809 15.8625 14.6589 15.7726 14.769L14.4163 16.4261C12.2877 15.4225 10.5747 13.7095 9.57116 11.581L11.2282 10.2247C11.3386 10.1349 11.4167 10.0116 11.4508 9.87349C11.4848 9.73534 11.4729 9.58986 11.4169 9.45907L10.1044 6.39652C10.0429 6.25553 9.93411 6.14042 9.79684 6.07104C9.65957 6.00165 9.50239 5.98234 9.3524 6.01643L6.5086 6.67269C6.364 6.70609 6.23498 6.78751 6.14261 6.90367C6.05024 7.01983 5.99997 7.16387 6 7.31228C6 14.3261 11.6849 20 18.6877 20C18.8362 20.0001 18.9803 19.9499 19.0965 19.8575C19.2127 19.7651 19.2942 19.636 19.3276 19.4914L19.9838 16.6476C20.0177 16.4969 19.998 16.3391 19.9281 16.2013C19.8581 16.0636 19.7424 15.9545 19.6007 15.8929Z" fill="#A4B375"/>
</g>
<defs>
<clipPath id="clip0_273_5258">
<rect width="14" height="14" fill="white" transform="translate(6 6)"/>
</clipPath>
</defs>
</svg>
