<svg width="14" height="14" viewBox="0 0 14 14" fill="none" xmlns="http://www.w3.org/2000/svg">
<path d="M11.375 8.75H8.75C8.26875 8.75 7.875 8.35625 7.875 7.875C7.875 7.39375 8.26875 7 8.75 7H11.375C11.375 7 14 4.07422 14 2.625C14 1.17578 12.8242 0 11.375 0C9.92578 0 8.75 1.17578 8.75 2.625C8.75 3.32227 9.35703 4.35859 9.98867 5.25H8.75C7.30352 5.25 6.125 6.42852 6.125 7.875C6.125 9.32148 7.30352 10.5 8.75 10.5H11.375C11.8562 10.5 12.25 10.8938 12.25 11.375C12.25 11.8562 11.8562 12.25 11.375 12.25H5.07227C4.63477 12.9281 4.14805 13.5543 3.77891 14H11.375C12.8215 14 14 12.8215 14 11.375C14 9.92852 12.8215 8.75 11.375 8.75ZM11.375 1.75C11.859 1.75 12.25 2.14102 12.25 2.625C12.25 3.10898 11.859 3.5 11.375 3.5C10.891 3.5 10.5 3.10898 10.5 2.625C10.5 2.14102 10.891 1.75 11.375 1.75ZM2.625 7C1.17578 7 0 8.17578 0 9.625C0 11.0742 2.625 14 2.625 14C2.625 14 5.25 11.0742 5.25 9.625C5.25 8.17578 4.07422 7 2.625 7ZM2.625 10.5C2.14102 10.5 1.75 10.109 1.75 9.625C1.75 9.14102 2.14102 8.75 2.625 8.75C3.10898 8.75 3.5 9.14102 3.5 9.625C3.5 10.109 3.10898 10.5 2.625 10.5Z" fill="#767676"/>
</svg>
