<svg width="26" height="26" viewBox="0 0 26 26" fill="none" xmlns="http://www.w3.org/2000/svg">
<circle cx="13" cy="13" r="12.5" fill="white" stroke="#A4B375"/>
<g clip-path="url(#clip0_52_1354)">
<path d="M13 5.25C8.58161 5.25 5 8.71969 5 13C5 17.2803 8.58161 20.75 13 20.75C17.4184 20.75 21 17.2803 21 13C21 8.71969 17.4184 5.25 13 5.25ZM15.6545 16.425C15.5287 16.5463 15.3968 16.6734 15.2897 16.7775C15.1932 16.8713 15.1252 16.9869 15.0906 17.1122C15.0419 17.2891 15.0026 17.4678 14.9368 17.6394L14.3758 19.1034C13.9319 19.1972 13.4726 19.25 13 19.25V18.3944C13.0545 18 12.7535 17.2612 12.27 16.7928C12.0765 16.6053 11.9677 16.3509 11.9677 16.0856V15.0853C11.9677 14.7216 11.7655 14.3872 11.4368 14.2113C10.9732 13.9628 10.3139 13.6156 9.86226 13.3953C9.49194 13.2147 9.14935 12.9847 8.84129 12.7156L8.81548 12.6931C8.59518 12.5005 8.39958 12.2829 8.2329 12.045C7.93032 11.6147 7.43742 10.9069 7.1171 10.4469C7.77742 9.025 8.96742 7.88313 10.4461 7.26281L11.2206 7.63812C11.5639 7.80437 11.9677 7.56281 11.9677 7.19094V6.83781C12.2255 6.7975 12.4877 6.77188 12.7545 6.76219L13.6674 7.64656C13.869 7.84188 13.869 8.15844 13.6674 8.35375L13.5161 8.5L13.1826 8.82312C13.0819 8.92062 13.0819 9.07906 13.1826 9.17656L13.3339 9.32312C13.4345 9.42062 13.4345 9.57906 13.3339 9.67656L13.0758 9.92656C13.0274 9.97341 12.9617 9.99971 12.8932 9.99969H12.6032C12.5361 9.99969 12.4716 10.025 12.4232 10.0706L12.1032 10.3722C12.064 10.4092 12.0379 10.4573 12.0288 10.5096C12.0196 10.5619 12.0278 10.6157 12.0523 10.6631L12.5552 11.6378C12.641 11.8041 12.5161 11.9997 12.3245 11.9997H12.1426C12.0803 11.9997 12.0203 11.9778 11.9735 11.9384L11.6742 11.6866C11.6065 11.6296 11.5246 11.5908 11.4366 11.5738C11.3487 11.5568 11.2577 11.5623 11.1726 11.5897L10.1671 11.9144C10.0903 11.9392 10.0236 11.9867 9.97627 12.0503C9.92896 12.1139 9.90352 12.1904 9.90355 12.2688C9.90355 12.4103 9.98613 12.5394 10.1168 12.6028L10.4742 12.7759C10.7777 12.9231 11.1126 12.9997 11.4519 12.9997C11.7913 12.9997 12.1806 13.8525 12.4842 13.9997H14.6374C14.9113 13.9997 15.1735 14.105 15.3674 14.2925L15.809 14.7203C15.9935 14.8991 16.0971 15.1416 16.0971 15.3944C16.097 15.5859 16.0579 15.7756 15.9819 15.9525C15.906 16.1293 15.7947 16.2899 15.6545 16.425ZM18.4516 13.5703C18.2648 13.525 18.1019 13.4141 17.9952 13.2587L17.4152 12.4159C17.3303 12.2928 17.285 12.1481 17.285 12C17.285 11.8519 17.3303 11.7072 17.4152 11.5841L18.0471 10.6659C18.1219 10.5575 18.2245 10.4694 18.3452 10.4113L18.7639 10.2084C19.2 11.0497 19.4516 11.9959 19.4516 13C19.4516 13.2709 19.4277 13.5363 19.3929 13.7981L18.4516 13.5703Z" fill="#A4B375"/>
</g>
<defs>
<clipPath id="clip0_52_1354">
<rect width="16" height="16" fill="white" transform="translate(5 5)"/>
</clipPath>
</defs>
</svg>
